# Blender v2.71 (sub 0) OBJ File: ''
# www.blender.org
g Box
v -1.000000 -1.000000 1.000000
v -1.000000 -0.800000 -1.000000
v 1.000000 -1.000000 -1.000000
v 1.000000 -1.000000 1.000000
v -1.000000 1.000000 1.000000
v -1.000000 1.000000 -1.000000
v 1.000000 1.000000 -1.000000
v 1.000000 1.000000 1.000000
v -1.000000 -0.800000 0.000000
v -1.000000 1.000000 0.000000
v -0.333333 1.000000 0.000000
v 0.333333 1.000000 0.000000
v 1.000000 1.000000 0.000000
v 1.000000 -0.700000 0.000000
v -0.333333 1.000000 -1.000000
v -0.333333 -1.000000 -1.000000
v 0.333333 1.000000 -1.000000
v 0.333333 -0.900000 -1.000000
v -0.333333 1.000000 1.000000
v -0.333333 0.000000 1.000000
v 0.333333 1.000000 1.000000
v 0.333333 -0.400000 1.000000
vn -1.000000 0.000000 0.000000
vn 0.000000 0.000000 -1.000000
vn 1.000000 0.000000 0.000000
vn 0.000000 0.000000 1.000000
vn 0.000000 1.000000 0.000000
s off
f 5//1 10//1 9//1 1//1
f 10//1 6//1 2//1 9//1
f 6//2 15//2 16//2 2//2
f 15//2 17//2 18//2 16//2
f 17//2 7//2 3//2 18//2
f 7//3 13//3 14//3 3//3
f 13//3 8//3 4//3 14//3
f 8//4 21//4 22//4 4//4
f 21//4 19//4 20//4 22//4
f 19//4 5//4 1//4 20//4
f 8//5 13//5 12//5 21//5
f 13//5 7//5 17//5 12//5
f 21//5 12//5 11//5 19//5
f 12//5 17//5 15//5 11//5
f 11//5 15//5 6//5 10//5
f 19//5 11//5 10//5 5//5
