# Blender v2.77 (sub 0) OBJ File: ''
# www.blender.org
g Cube
v 1.000000 -1.000000 -1.000000
v 1.000000 -1.000000 1.000000
v -1.000000 -1.000000 1.000000
v -1.000000 -1.000000 -1.000000
v 1.000000 1.000000 -0.999999
v 0.999999 1.000000 1.000001
v -1.000000 1.000000 1.000000
v -1.000000 1.000000 -1.000000
v 1.000000 -1.000000 -0.333333
v 1.000000 -1.000000 0.333333
v -1.000000 -1.000000 0.333333
v -1.000000 -1.000000 -0.333334
v 1.000000 1.000000 -0.333333
v 1.000000 1.000000 0.333334
v -1.000000 1.000000 0.333333
v -1.000000 1.000000 -0.333333
v 0.333333 -1.000000 -1.000000
v -0.333333 -1.000000 -1.000000
v 0.333333 -1.000000 1.000000
v -0.333333 -1.000000 1.000000
v 0.333334 1.000000 -1.000000
v -0.333333 1.000000 -1.000000
v 0.333333 1.000000 1.000000
v -0.333334 1.000000 1.000000
v -0.333333 1.000000 -0.333333
v 0.333333 1.000000 -0.333333
v -0.333334 1.000000 0.333333
v 0.333333 1.000000 0.333334
v 0.333333 -1.000000 -0.333333
v -0.333333 -1.000000 -0.333334
v 0.333333 -1.000000 0.333333
v -0.333333 -1.000000 0.333333
v 1.000000 -0.333333 -1.000000
v 1.000000 0.333333 -1.000000
v 1.000000 -0.333333 1.000000
v 1.000000 0.333333 1.000000
v -1.000000 -0.333333 1.000000
v -1.000000 0.333333 1.000000
v -1.000000 -0.333333 -1.000000
v -1.000000 0.333333 -1.000000
v -1.000000 0.333333 0.333333
v -1.000000 -0.333333 0.333333
v -1.000000 0.333333 -0.333334
v -1.000000 -0.333333 -0.333334
v 1.000000 0.333333 -0.333333
v 1.000000 -0.333333 -0.333333
v 1.000000 0.333333 0.333334
v 1.000000 -0.333333 0.333334
v 0.333333 -0.333333 -1.000000
v 0.333334 0.333333 -1.000000
v -0.333333 -0.333333 -1.000000
v -0.333333 0.333333 -1.000000
v 0.333333 0.333333 1.000000
v 0.333333 -0.333333 1.000000
v -0.333334 0.333333 1.000000
v -0.333334 -0.333333 1.000000
vn 0.0000 -1.0000 0.0000
vn 0.0000 1.0000 0.0000
vn 1.0000 0.0000 0.0000
vn -0.0000 0.0000 1.0000
vn -1.0000 -0.0000 -0.0000
vn 0.0000 0.0000 -1.0000
s off
f 32//1 20//1 3//1 11//1
f 27//2 15//2 7//2 24//2
f 47//3 14//3 6//3 36//3
f 55//4 24//4 7//4 38//4
f 43//5 16//5 8//5 40//5
f 51//6 18//6 4//6 39//6
f 38//5 7//5 15//5 41//5
f 41//5 15//5 16//5 43//5
f 34//3 5//3 13//3 45//3
f 45//3 13//3 14//3 47//3
f 22//2 8//2 16//2 25//2
f 25//2 16//2 15//2 27//2
f 18//1 30//1 12//1 4//1
f 30//1 32//1 11//1 12//1
f 9//1 10//1 31//1 29//1
f 29//1 31//1 32//1 30//1
f 1//1 9//1 29//1 17//1
f 17//1 29//1 30//1 18//1
f 13//2 26//2 28//2 14//2
f 26//2 25//2 27//2 28//2
f 5//2 21//2 26//2 13//2
f 21//2 22//2 25//2 26//2
f 33//6 1//6 17//6 49//6
f 49//6 17//6 18//6 51//6
f 36//4 6//4 23//4 53//4
f 53//4 23//4 24//4 55//4
f 14//2 28//2 23//2 6//2
f 28//2 27//2 24//2 23//2
f 10//1 2//1 19//1 31//1
f 31//1 19//1 20//1 32//1
f 19//4 54//4 56//4 20//4
f 54//4 53//4 55//4 56//4
f 2//4 35//4 54//4 19//4
f 35//4 36//4 53//4 54//4
f 21//6 50//6 52//6 22//6
f 50//6 49//6 51//6 52//6
f 5//6 34//6 50//6 21//6
f 34//6 33//6 49//6 50//6
f 9//3 46//3 48//3 10//3
f 46//3 45//3 47//3 48//3
f 1//3 33//3 46//3 9//3
f 33//3 34//3 45//3 46//3
f 11//5 42//5 44//5 12//5
f 42//5 41//5 43//5 44//5
f 3//5 37//5 42//5 11//5
f 37//5 38//5 41//5 42//5
f 22//6 52//6 40//6 8//6
f 52//6 51//6 39//6 40//6
f 12//5 44//5 39//5 4//5
f 44//5 43//5 40//5 39//5
f 20//4 56//4 37//4 3//4
f 56//4 55//4 38//4 37//4
f 10//3 48//3 35//3 2//3
f 48//3 47//3 36//3 35//3
